<svg width="32" height="32" viewBox="0 0 32 32" fill="none" xmlns="http://www.w3.org/2000/svg">
<path fill-rule="evenodd" clip-rule="evenodd" d="M18.6667 9.33333V6.66667C18.6667 5.19391 17.4728 4 16 4H5.33333C3.86057 4 2.66666 5.19391 2.66666 6.66667V17.3333C2.66666 18.8061 3.86057 20 5.33333 20L10.6667 20L10.6667 25.3333C10.6667 26.8061 11.8606 28 13.3333 28L26.6667 28C28.1394 28 29.3333 26.8061 29.3333 25.3333L29.3333 12C29.3333 10.5272 28.1394 9.33333 26.6667 9.33333L18.6667 9.33333ZM16 9.33333L13.3333 9.33333C11.8606 9.33333 10.6667 10.5272 10.6667 12L10.6667 17.3333L5.33333 17.3333L5.33333 6.66667L16 6.66667V9.33333ZM26.6667 25.3333L13.3333 25.3333L13.3333 12L26.6667 12L26.6667 25.3333Z" fill="currentColor"/>
</svg>
