<svg width="32" height="32" viewBox="0 0 32 32" fill="none" xmlns="http://www.w3.org/2000/svg">
<path fill-rule="evenodd" clip-rule="evenodd" d="M16 9.73778L14.1845 8.05032C13.2376 7.17022 11.9878 6.66667 10.6111 6.66667C7.7026 6.66667 5.33333 9.03797 5.33333 11.9334C5.33333 12.9452 5.75947 14.2317 6.69322 15.7522C7.60949 17.2443 8.88694 18.755 10.2734 20.1606C12.5084 22.4263 14.856 24.2487 15.989 25.0878C17.1218 24.1976 19.4807 22.2636 21.7268 19.9321C23.1189 18.4871 24.4033 16.9551 25.3243 15.4804C26.2754 13.9576 26.6667 12.7677 26.6667 11.9445C26.6667 9.03554 24.295 6.66667 21.3889 6.66667C20.0122 6.66667 18.7624 7.17022 17.8155 8.05032L16 9.73778ZM15.0333 27.6893C13.7667 26.7906 2.66666 18.7573 2.66666 11.9334C2.66666 7.56172 6.23333 4 10.6111 4C12.6556 4 14.5556 4.75451 16 6.09709C17.4444 4.75451 19.3444 4 21.3889 4C25.7667 4 29.3333 7.56172 29.3333 11.9445C29.3333 18.1692 18.2778 26.7129 17.0111 27.6671C16.7111 27.889 16.3556 28 16 28C15.6556 28 15.3222 27.889 15.0333 27.6893Z" fill="currentColor"/>
</svg>
