<svg width="32" height="32" viewBox="0 0 32 32" fill="none" xmlns="http://www.w3.org/2000/svg">
<path fill-rule="evenodd" clip-rule="evenodd" d="M12 17.3333C14.2091 17.3333 16 15.5425 16 13.3333C16 11.1242 14.2091 9.33333 12 9.33333C9.79086 9.33333 8 11.1242 8 13.3333C8 15.5425 9.79086 17.3333 12 17.3333ZM10.6667 13.3333C10.6667 12.597 11.2636 12 12 12C12.7364 12 13.3333 12.597 13.3333 13.3333C13.3333 14.0697 12.7364 14.6667 12 14.6667C11.2636 14.6667 10.6667 14.0697 10.6667 13.3333Z" fill="black"/>
<path fill-rule="evenodd" clip-rule="evenodd" d="M5.33333 4C3.86057 4 2.66667 5.19391 2.66667 6.66667V25.3333C2.66667 26.8061 3.86058 28 5.33333 28H26.6667C28.1394 28 29.3333 26.8061 29.3333 25.3333V6.66667C29.3333 5.19391 28.1394 4 26.6667 4H5.33333ZM26.6667 6.66667H5.33333V25.3333H5.52405L12.489 19.6347C12.9639 19.2462 13.6425 19.2319 14.1333 19.6L15.9284 20.9463L21.1142 16.3368C21.5946 15.9098 22.3112 15.8863 22.8186 16.2809L26.6667 19.2738V6.66667ZM26.6667 25.3333H9.73521L13.3691 22.3602L15.2 23.7333C15.7072 24.1137 16.412 24.0844 16.8858 23.6632L22.0569 19.0667L26.6667 22.6521V25.3333Z" fill="black"/>
</svg>
