<svg width="32" height="32" viewBox="0 0 32 32" fill="none" xmlns="http://www.w3.org/2000/svg">
<path d="M16 22.6667C16.7364 22.6667 17.3333 22.0697 17.3333 21.3333C17.3333 20.597 16.7364 20 16 20C15.2636 20 14.6667 20.597 14.6667 21.3333C14.6667 22.0697 15.2636 22.6667 16 22.6667Z" fill="black"/>
<path fill-rule="evenodd" clip-rule="evenodd" d="M9.33333 9.33333V13.3333H8C6.52724 13.3333 5.33333 14.5272 5.33333 16V26.6667C5.33333 28.1394 6.52724 29.3333 8 29.3333H24C25.4728 29.3333 26.6667 28.1394 26.6667 26.6667V16C26.6667 14.5272 25.4728 13.3333 24 13.3333H22.6667V9.33333C22.6667 5.65143 19.6819 2.66666 16 2.66666C12.3181 2.66666 9.33333 5.65143 9.33333 9.33333ZM16 5.33333C13.7909 5.33333 12 7.12419 12 9.33333V13.3333H20V9.33333C20 7.12419 18.2091 5.33333 16 5.33333ZM8 16V26.6667H24V16H8Z" fill="black"/>
</svg>
