<svg width="32" height="32" viewBox="0 0 32 32" fill="none" xmlns="http://www.w3.org/2000/svg">
<path d="M16 5.33334C10.116 5.33334 5.33334 10.132 5.33334 16.0671C5.33334 17.7502 5.71736 19.3391 6.40058 20.7533C6.7209 21.4164 6.44306 22.2136 5.78 22.5339C5.11695 22.8542 4.31976 22.5764 3.99943 21.9133C3.14507 20.1448 2.66667 18.1602 2.66667 16.0671C2.66667 8.67327 8.62921 2.66667 16 2.66667C23.3708 2.66667 29.3333 8.67327 29.3333 16.0671C29.3333 18.1602 28.8549 20.1448 28.0006 21.9133C27.6803 22.5764 26.8831 22.8542 26.22 22.5339C25.5569 22.2136 25.2791 21.4164 25.5994 20.7533C26.2826 19.3391 26.6667 17.7502 26.6667 16.0671C26.6667 10.132 21.884 5.33334 16 5.33334Z" fill="currentColor"/>
<path fill-rule="evenodd" clip-rule="evenodd" d="M19.3487 21.7659C21.3329 20.611 22.6667 18.4613 22.6667 16C22.6667 12.3181 19.6819 9.33334 16 9.33334C12.3181 9.33334 9.33334 12.3181 9.33334 16C9.33334 18.4613 10.6671 20.611 12.6513 21.7659C10.6105 22.3189 9.04915 23.3266 7.91668 24.3395C7.07959 25.0882 6.47828 25.8373 6.08312 26.4044C5.88504 26.6887 5.73719 26.9296 5.63606 27.105C5.58545 27.1928 5.5464 27.2645 5.51848 27.3173C5.50452 27.3438 5.49332 27.3655 5.48485 27.3822L5.47417 27.4035L5.47034 27.4113L5.4688 27.4144L5.46813 27.4158C5.46782 27.4165 5.46751 27.4171 6.66667 28L5.46751 27.4171C5.14557 28.0794 5.42147 28.8772 6.08375 29.1992C6.74422 29.5202 7.53955 29.2467 7.86319 28.5883L7.86395 28.5868L7.87639 28.5629C7.88974 28.5376 7.91297 28.4947 7.94642 28.4367C8.0134 28.3205 8.12076 28.1446 8.27106 27.9289C8.57266 27.4961 9.04079 26.9118 9.69444 26.3272C10.989 25.1693 13.017 24 16 24C18.983 24 21.011 25.1693 22.3056 26.3272C22.9592 26.9118 23.4274 27.4961 23.729 27.9289C23.8793 28.1446 23.9866 28.3205 24.0536 28.4367C24.087 28.4947 24.1103 28.5376 24.1236 28.5629L24.1361 28.5868L24.1368 28.5883C24.4604 29.2467 25.2558 29.5202 25.9163 29.1992C26.5785 28.8772 26.8544 28.0794 26.5325 27.4171L25.3333 28C26.5325 27.4171 26.5322 27.4165 26.5319 27.4158L26.5297 27.4113L26.5258 27.4035L26.5152 27.3822C26.5067 27.3655 26.4955 27.3438 26.4815 27.3173C26.4536 27.2645 26.4146 27.1928 26.364 27.105C26.2628 26.9296 26.115 26.6887 25.9169 26.4044C25.5217 25.8373 24.9204 25.0882 24.0833 24.3395C22.9509 23.3266 21.3895 22.3189 19.3487 21.7659ZM16 20C18.2091 20 20 18.2091 20 16C20 13.7909 18.2091 12 16 12C13.7909 12 12 13.7909 12 16C12 18.2091 13.7909 20 16 20Z" fill="currentColor"/>
</svg>
